<svg xmlns="http://www.w3.org/2000/svg" viewBox="0 0 32 32">
  <rect width="32" height="32" rx="7" fill="#EFF4FF" />
  <g transform="translate(0 0)">
    <rect x="7" y="8" width="16" height="20" rx="3" fill="#2563EB" opacity="0.25" transform="translate(5 -5)" />
    <rect x="7" y="8" width="16" height="20" rx="3" fill="#2563EB" opacity="0.5" transform="translate(2.5 -2.5)" />
    <rect x="7" y="8" width="16" height="20" rx="3" fill="#2563EB" />
    <path d="M14 9 C14 13.92 15.08 15 20 15 C15.08 15 14 16.08 14 21 C14 16.08 12.92 15 8 15 C12.92 15 14 13.92 14 9 Z" fill="#fff" />
    <path d="M21 6.4 C21 8.53 21.47 9 23.6 9 C21.47 9 21 9.47 21 11.6 C21 9.47 20.53 9 18.4 9 C20.53 9 21 8.53 21 6.4 Z" fill="#fff" />
  </g>
</svg>
